HIERARCHY
ROOT Hips
{
	OFFSET 0.000000 0.000000 0.000000 
	CHANNELS 6 Xposition Yposition Zposition Yrotation Zrotation Xrotation 
	JOINT Lumbar
	{
		OFFSET 0.000000 0.000000 0.000000 
		CHANNELS 3 Zrotation Xrotation Yrotation
		JOINT Neck
		{
			OFFSET 0.000000 0.445665 0.000000 
			CHANNELS 3 Zrotation Xrotation Yrotation
			End Site
			{
				OFFSET 0.000000 0.227535 0.000000 
			}
		}
		JOINT RightShoulder
		{
			OFFSET 0.019635 0.377685 0.194865 
			CHANNELS 3 Zrotation Xrotation Yrotation
			JOINT RightElbow
			{
				OFFSET 0.000000 -0.243375 0.000000 
				CHANNELS 2 Zrotation Yrotation
				JOINT RightWrist
				{
					OFFSET 0.000000 -0.264825 0.000000 
					CHANNELS 2 Zrotation Xrotation
					End Site
					{
						OFFSET 0.006600 -0.176220 0.000990 
					}
				}
			}
		}
		JOINT LeftShoulder
		{
			OFFSET 0.019635 0.377685 -0.194865 
			CHANNELS 3 Zrotation Xrotation Yrotation
			JOINT LeftElbow
			{
				OFFSET 0.000000 -0.243375 0.000000 
				CHANNELS 2 Zrotation Yrotation
				JOINT LeftWrist
				{
					OFFSET 0.000000 -0.264825 0.000000 
					CHANNELS 2 Zrotation Xrotation
					End Site
					{
						OFFSET 0.006600 -0.176220 -0.000990 
					}
				}
			}
		}
	}
	JOINT RightHip
	{
		OFFSET 0.052140 -0.069960 0.075570 
		CHANNELS 3 Zrotation Xrotation Yrotation
		JOINT RightKnee
		{
			OFFSET 0.000000 -0.402270 0.000000 
			CHANNELS 1 Zrotation
			JOINT RightAnkle
			{
				OFFSET 0.000000 -0.404085 0.000000 
				CHANNELS 3 Zrotation Xrotation Yrotation
				End Site
				{
					OFFSET 0.204105 -0.089430 0.008415 
				}
			}
		}
	}
	JOINT LeftHip
	{
		OFFSET 0.052140 -0.069960 -0.075570 
		CHANNELS 3 Zrotation Xrotation Yrotation
		JOINT LeftKnee
		{
			OFFSET 0.000000 -0.402270 0.000000 
			CHANNELS 1 Zrotation
			JOINT LeftAnkle
			{
				OFFSET 0.000000 -0.404085 0.000000 
				CHANNELS 3 Zrotation Xrotation Yrotation
				End Site
				{
					OFFSET 0.204105 -0.089430 -0.008415 
				}
			}
		}
	}
}
MOTION
Frames: 33
Frame Time: 0.02
0.68081 0.13277 -0.28074 84.76848 -65.89989 -28.26528 40.47475 1.31168 4.22781 6.33192 -1.78213 -0.83079 45.98201 -24.33616 57.87493 38.72807 19.76027 37.4069 -13.34592 45.41302 26.1334 -63.57794 47.71035 0.56663 36.68337 22.97165 69.98511 7.14638 -14.01553 -13.88161 -7.08891 -3.76724 -2.63769 58.6242 17.01094 0.72953 -7.1434 -16.31284 5.2559 4.01687
0.68055 0.13289 -0.28169 84.52203 -66.40585 -28.52447 40.20169 1.23668 4.14865 6.21671 -1.84611 -0.83079 46.10467 -24.39632 57.8901 38.79866 19.78278 37.54479 -13.33147 45.04239 26.14285 -63.30044 47.81656 0.56887 36.89243 22.973 70.46126 7.0799 -13.46668 -13.8834 -7.12793 -3.84006 -2.67936 59.05315 16.95836 0.89045 -7.02545 -16.31368 5.22585 3.99868
0.68018 0.13294 -0.28274 84.32684 -66.89333 -28.74877 39.93212 1.17658 4.06309 6.09987 -1.90958 -0.83079 46.23594 -24.43079 57.88946 38.78504 19.83871 37.71198 -13.30506 44.70572 26.03537 -62.97443 47.77245 0.56779 37.13334 22.97233 70.90844 7.02007 -12.72403 -13.90049 -7.17122 -3.9379 -2.73512 59.42717 16.92219 1.28502 -6.88426 -16.28826 5.18377 3.97174
0.67985 0.13302 -0.28376 84.10814 -67.38629 -28.98807 39.6631 1.11062 3.98245 5.98485 -1.97346 -0.83079 46.36205 -24.47523 57.89504 38.80633 19.87749 37.85881 -13.28486 44.35801 25.97921 -62.67144 47.79433 0.56766 37.35103 22.97219 71.36362 6.95403 -12.09791 -13.91053 -7.21066 -4.02055 -2.78232 59.82324 16.87576 1.55658 -6.7549 -16.27656 5.14836 3.94961
0.67958 0.1331 -0.2847 83.88804 -67.89266 -29.23339 39.38383 1.04097 3.89277 5.86523 -2.03675 -0.83079 46.49585 -24.52666 57.90442 38.84094 19.92535 38.03729 -13.26073 43.99197 25.9295 -62.36254 47.82395 0.56762 37.60849 22.97219 71.84252 6.90077 -11.35619 -13.92088 -7.2581 -4.1188 -2.8383 60.23311 16.84064 1.89271 -6.6187 -16.25806 5.10811 3.92415
0.67916 0.13316 -0.28584 83.68565 -68.36572 -29.4555 39.12709 0.98251 3.82037 5.75529 -2.10108 -0.83079 46.61425 -24.5566 57.90229 38.82686 19.96172 38.15569 -13.24245 43.6723 25.83745 -62.05572 47.79947 0.56721 37.78764 22.97193 72.26336 6.8227 -10.80512 -13.9345 -7.28997 -4.19093 -2.87961 60.60071 16.78597 2.15368 -6.49405 -16.24683 5.07495 3.90342
0.6784 0.13314 -0.28748 83.4982 -68.75769 -29.63994 38.93305 0.95105 3.80044 5.66682 -2.16836 -0.83079 46.69414 -24.54466 57.8736 38.71441 19.9573 38.10571 -13.24161 43.46939 25.67595 -61.75775 47.69873 0.56752 37.765 22.97194 72.54289 6.67491 -10.85847 -13.95031 -7.27681 -4.1818 -2.87518 60.86611 16.67484 2.13322 -6.3847 -16.26613 5.06473 3.8984
0.67749 0.1331 -0.28933 83.33085 -69.11511 -29.79873 38.76142 0.93033 3.79785 5.58919 -2.23663 -0.83079 46.75687 -24.51009 57.83501 38.55316 19.9378 37.99321 -13.24841 43.31214 25.47218 -61.46448 47.54177 0.56626 37.65706 22.97166 72.76211 6.50194 -11.10533 -13.9694 -7.24791 -4.14602 -2.85578 61.09204 16.54349 2.03281 -6.29552 -16.29253 5.06194 3.89829
0.67663 0.13307 -0.29111 83.16841 -69.48462 -29.95757 38.57894 0.90491 3.78506 5.51017 -2.30452 -0.83079 46.82309 -24.47872 57.79836 38.40466 19.9288 37.90595 -13.2516 43.13628 25.27661 -61.17604 47.38875 0.56741 37.57497 22.97168 73.00172 6.34035 -11.2421 -13.98905 -7.22695 -4.12462 -2.84453 61.33306 16.42019 1.98074 -6.20687 -16.31338 5.05541 3.89557
0.67584 0.13304 -0.29277 82.9485 -69.87042 -30.16453 38.39972 0.87941 3.78092 5.41594 -2.37235 -0.83079 46.90761 -24.47632 57.76639 38.29367 19.9156 37.83289 -13.25093 42.95392 25.1259 -60.86002 47.32562 0.56744 37.55327 22.97177 73.27221 6.17928 -11.46185 -14.00074 -7.20315 -4.09498 -2.82838 61.57764 16.30135 1.88628 -6.06123 -16.3444 5.04996 3.89421
0.67487 0.133 -0.29472 82.85235 -70.2122 -30.2652 38.21856 0.85624 3.7641 5.3563 -2.44022 -0.83079 46.95011 -24.40859 57.72954 38.0932 19.89454 37.71536 -13.26529 42.79383 24.87009 -60.59878 47.05885 0.5617 37.37918 22.97058 73.46159 6.01103 -11.562 -14.02937 -7.18105 -4.07523 -2.81832 61.81443 16.16933 1.85784 -6.05852 -16.35468 5.04422 3.89122
0.67344 0.13293 -0.29737 83.09279 -70.45857 -30.08224 38.0301 0.8382 3.69878 5.38666 -2.51065 -0.83079 46.87666 -24.16594 57.61933 37.66601 19.96985 37.48276 -13.27449 42.69732 24.36205 -60.52284 46.28815 0.5756 36.84359 22.97251 73.46536 5.82941 -11.24312 -14.10573 -7.17137 -4.0946 -2.83215 61.96924 15.99599 2.03251 -6.28193 -16.31885 5.03538 3.88285
0.67182 0.13285 -0.30031 83.45654 -70.65824 -29.79275 37.83823 0.82168 3.62218 5.4519 -2.58053 -0.83079 46.76126 -23.85864 57.5146 37.1498 20.02097 37.20577 -13.30559 42.61851 23.74516 -60.4936 45.30749 0.55536 36.14195 22.96992 73.38484 5.64146 -10.80491 -14.19861 -7.16327 -4.1238 -2.85197 62.1313 15.81174 2.27488 -6.67913 -16.25903 5.02592 3.87245
0.67027 0.13276 -0.30312 83.76414 -70.86827 -29.54976 37.64556 0.80368 3.55637 5.5032 -2.64897 -0.83079 46.66896 -23.58093 57.45046 36.66867 20.00197 36.95781 -13.35786 42.52334 23.16059 -60.42267 44.39373 0.55545 35.50155 22.9677 73.32818 5.45603 -10.45073 -14.28269 -7.15184 -4.14478 -2.86667 62.33588 15.63897 2.48443 -7.10416 -16.20259 5.01744 3.863
0.6688 0.1327 -0.30588 84.07429 -71.12455 -29.31367 37.46354 0.78994 3.46583 5.54726 -2.72479 -0.83079 46.56302 -23.30087 57.211 36.20654 20.30549 36.68288 -13.28469 42.46688 22.64684 -60.44634 43.59589 0.62485 34.95236 22.98094 73.33236 5.27073 -9.98147 -14.37236 -7.15067 -4.18035 -2.89076 62.34422 15.4383 2.70048 -7.079 -16.18054 5.00723 3.85433
0.66711 0.13259 -0.30884 84.40646 -71.27185 -29.03859 37.25831 0.76689 3.42567 5.61398 -2.78485 -0.83079 46.47071 -23.0115 57.32948 35.68675 19.95608 36.43861 -13.47075 42.33091 21.96034 -60.27392 42.51054 0.42931 34.1321 22.95042 73.18811 5.08459 -9.71593 -14.45424 -7.12897 -4.18862 -2.89718 62.76531 15.29298 2.91948 -8.03245 -16.07808 4.99916 3.84261
0.66497 0.13241 -0.31222 84.78235 -71.14633 -28.68015 36.98938 0.72332 3.51237 5.74017 -2.80334 -0.83079 46.46844 -22.70351 58.50606 35.00778 17.62064 36.41971 -14.4264 41.99129 20.82393 -59.6352 40.65814 0.5211 32.99082 22.89195 72.67528 4.89307 -10.08607 -14.51069 -7.04806 -4.11564 -2.85121 64.30798 15.3075 3.13652 -11.63781 -15.78618 5.00773 3.83075
0.66259 0.13218 -0.3158 85.17271 -70.90951 -28.28741 36.69746 0.66932 3.65299 5.88729 -2.80549 -0.83079 46.47271 -22.38903 60.02711 34.2771 14.67845 36.40556 -15.62947 41.56654 19.51811 -58.78169 38.52952 0.19252 31.52534 22.77401 72.01204 4.70211 -10.65645 -14.55864 -6.9469 -4.01563 -2.78775 66.26754 15.3777 3.35424 -16.21678 -15.41003 5.01661 3.81456
0.66024 0.13194 -0.31932 85.54885 -70.71324 -27.91066 36.41583 0.61628 3.77857 6.02076 -2.81411 -0.83079 46.44747 -22.08477 61.34684 33.58601 12.12009 36.30905 -16.68251 41.1679 18.28909 -57.96928 36.5425 -0.64923 29.93636 22.62111 71.40492 4.51376 -11.10508 -14.61045 -6.85652 -3.93041 -2.73379 68.04914 15.41925 3.56667 -20.36343 -15.05382 5.01819 3.79505
0.65822 0.13182 -0.32272 85.96516 -70.55882 -27.52522 36.13356 0.57893 3.86339 6.17136 -2.82739 -0.83079 46.53619 -21.75205 62.86535 32.82829 9.04647 36.56468 -17.90167 40.82509 17.0548 -57.39567 34.47622 1.34215 29.42466 22.72333 70.8481 4.31222 -11.6785 -14.66308 -6.75959 -3.83492 -2.67346 69.78871 15.47325 3.7988 -24.50046 -14.77074 5.04939 3.79722
0.65545 0.13144 -0.32643 86.29516 -70.28998 -27.15525 35.84871 0.50683 4.04658 6.29278 -2.8263 -0.83079 46.38542 -21.47227 64.0396 32.19268 6.97511 36.06963 -18.82493 40.34294 15.79549 -56.27483 32.51724 -2.49281 26.66998 22.28817 70.14989 4.13945 -12.04235 -14.71147 -6.67139 -3.75428 -2.62217 71.70683 15.5163 3.99376 -28.85244 -14.32004 5.0197 3.75396
0.65075 0.13045 -0.33072 86.42039 -69.74431 -26.80186 35.55022 0.33764 4.48336 6.31153 -2.79592 -0.83079 45.60706 -21.38872 64.27766 31.95609 7.16888 33.67435 -18.94415 39.51778 14.48538 -53.67808 30.87957 -23.82741 17.14385 20.3128 69.11472 4.03692 -11.76901 -14.75227 -6.61293 -3.72123 -2.60022 74.0834 15.50119 4.04251 -33.85476 -13.38955 4.8155 3.58003
0.64527 0.12919 -0.33533 86.45039 -69.08515 -26.47234 35.25269 0.13464 5.01789 6.30334 -2.75024 -0.83079 44.58048 -21.3498 64.13672 31.8362 8.49373 30.49991 -18.74488 38.55069 13.16107 -50.54012 29.36818 -50.74099 5.4896 17.8111 67.93935 3.96498 -11.28102 -14.78838 -6.56379 -3.70393 -2.58788 76.61228 15.47539 4.05877 -38.98672 -12.30057 4.55125 3.36174
0.64007 0.12801 -0.33991 86.49942 -68.47063 -26.15492 34.96208 -0.05065 5.51131 6.31824 -2.70766 -0.83079 43.64536 -21.25917 64.10732 31.63011 9.75336 27.55741 -18.64092 37.63559 11.85866 -47.66226 27.8283 -74.09103 -4.75151 15.59797 66.81821 3.88513 -10.89711 -14.82549 -6.50993 -3.67952 -2.57115 79.02764 15.46453 4.12168 -43.86136 -11.30868 4.31852 3.16783
0.63517 0.127 -0.34402 86.65268 -67.88227 -25.73884 34.63763 -0.24673 5.99398 6.2875 -2.68166 -0.83079 42.803 -21.30155 64.35521 31.55905 9.17989 25.09506 -18.74735 36.77303 10.48397 -44.72099 26.1577 -101.74369 -16.86417 13.17779 65.73352 3.78035 -10.48925 -14.86807 -6.45749 -3.65433 -2.55414 81.64605 15.41501 4.06176 -49.59593 -10.20732 4.06765 2.9558
0.62947 0.12555 -0.34921 86.56445 -67.21295 -25.53504 34.38671 -0.42757 6.51984 6.34592 -2.61662 -0.83079 41.70536 -21.07684 63.91978 31.23905 12.59707 21.49233 -18.34542 35.76507 9.26004 -41.78135 24.79163 -121.82013 -25.60841 11.06028 64.53942 3.73434 -10.08186 -14.89703 -6.40449 -3.63439 -2.53995 83.87044 15.44031 4.23526 -53.57225 -9.29831 3.84067 2.77123
0.62188 0.12305 -0.35711 85.84699 -66.35774 -25.90512 34.31785 -0.56401 7.15473 6.65024 -2.4576 -0.83079 39.98974 -20.11189 61.79098 30.17076 27.66139 14.5435 -16.54101 34.42042 8.44615 -39.02267 24.24845 -119.032 -24.27926 9.94633 63.09774 3.84573 -9.68953 -14.8997 -6.3488 -3.62948 -2.5338 84.98037 15.69478 5.19003 -52.52782 -8.95186 3.6916 2.67177
0.61349 0.12009 -0.36613 84.88808 -65.42456 -26.48849 34.32735 -0.68292 7.82632 7.04628 -2.2586 -0.83079 38.02123 -18.87652 58.97188 28.8549 46.54199 6.54418 -14.24895 32.93001 7.78763 -36.27916 24.00592 -108.52944 -19.53078 9.14908 61.54849 4.01408 -9.3098 -14.88682 -6.29236 -3.62886 -2.52993 85.68277 16.0204 6.35896 -49.7291 -8.806 3.5694 2.60193
0.6054 0.11724 -0.37474 84.02889 -64.51999 -26.97982 34.31421 -0.80577 8.47256 7.40492 -2.0706 -0.83079 36.15078 -17.75784 56.39488 27.67304 63.07904 -0.71728 -12.2293 31.48592 7.0646 -33.49838 23.61935 -101.94051 -16.51251 8.18035 60.03506 4.15541 -8.95061 -14.87457 -6.23534 -3.62316 -2.52322 86.56452 16.30077 7.3426 -47.81695 -8.57389 3.43641 2.51944
0.59757 0.11475 -0.38292 83.20429 -63.63654 -27.45508 34.24472 -0.94632 9.16114 7.74511 -1.90988 -0.83079 34.34134 -16.66116 54.08737 26.40175 82.20663 -9.09693 -9.9847 30.11738 6.31326 -30.81863 23.27024 -93.83857 -12.82962 7.30574 58.56881 4.30515 -8.47935 -14.88985 -6.18155 -3.6301 -2.52382 87.4831 16.63749 8.68747 -45.5346 -8.31657 3.29439 2.43146
0.58901 0.11144 -0.39227 82.25699 -62.69666 -28.00942 34.31323 -1.04603 9.76609 8.14517 -1.6861 -0.83079 32.34997 -15.46104 51.08437 25.25987 96.85591 -15.39769 -8.09638 28.5632 5.66046 -27.94942 22.91041 -86.96629 -9.68483 6.32197 56.98434 4.44728 -8.23954 -14.84349 -6.12197 -3.61291 -2.51041 88.21799 16.87117 9.34254 -43.60271 -8.1601 3.17954 2.36317
0.57873 0.10572 -0.40451 80.98476 -61.58103 -28.77002 34.72588 -1.0312 10.15495 8.69274 -1.27179 -0.83079 29.902 -13.98007 46.11692 24.50828 97.97385 -15.60051 -7.31703 26.49493 5.22195 -24.47056 22.4712 -85.4868 -8.90818 4.92148 55.06897 4.58273 -8.70394 -14.63993 -6.03598 -3.51655 -2.45082 88.61171 16.82591 7.94255 -43.08133 -8.24619 3.123 2.33669
0.56775 0.09924 -0.41789 79.60716 -60.41877 -29.59493 35.27759 -0.97661 10.4532 9.29573 -0.80022 -0.83079 27.28387 -12.41596 40.51468 23.90161 94.48893 -13.68827 -6.91327 24.25302 4.88168 -20.82041 22.00747 -85.45767 -8.7731 3.41037 53.04513 4.70363 -9.38987 -14.3757 -5.94617 -3.39792 -2.37836 88.82025 16.67026 5.85898 -42.96787 -8.4255 3.0949 2.33012
